<svg width="200" height="200" viewBox="0 0 200 200" fill="none" xmlns="http://www.w3.org/2000/svg">
<path d="M36.8876 170.006L22.8501 12.5H177.15L163.094 169.981L99.9063 187.5L36.8876 170.006Z" fill="#1572B6"/>
<path d="M100 174.113L151.063 159.956L163.075 25.3813H100V174.113Z" fill="#33A9DC"/>
<path d="M100 82.4438H125.563L127.325 62.6625H100V43.3438H148.438L147.975 48.525L143.231 101.763H100V82.4438V82.4438Z" fill="white"/>
<path d="M100.119 132.613L100.031 132.638L78.5187 126.825L77.1438 111.419H57.75L60.4563 141.75L100.025 152.738L100.119 152.713V132.613V132.613Z" fill="#EBEBEB"/>
<path d="M123.919 100.944L121.594 126.812L100.05 132.625V152.725L139.65 141.75L139.944 138.487L143.3 100.944H123.919V100.944Z" fill="white"/>
<path d="M100.069 43.3438V62.6625H53.4061L53.0186 58.3188L52.1373 48.525L51.6748 43.3438H100.069V43.3438ZM99.9998 82.4438V101.763H78.7561L78.3686 97.4188L77.4936 87.625L77.0311 82.4438H99.9998V82.4438Z" fill="#EBEBEB"/>
</svg>
