<svg width="200" height="200" viewBox="0 0 200 200" fill="none" xmlns="http://www.w3.org/2000/svg">
<path d="M36.8875 170.006L22.8438 12.5H177.156L163.094 169.981L99.9062 187.5L36.8875 170.006Z" fill="#E44F26"/>
<path d="M100 174.113L151.063 159.956L163.075 25.3813H100V174.113Z" fill="#F1662A"/>
<path d="M100 83.7938H74.4375L72.675 64.0125H100V44.6938H51.5625L52.025 49.8813L56.7688 103.113H100V83.7938V83.7938ZM100 133.963L99.9125 133.988L78.4 128.181L77.025 112.775H57.6312L60.3375 143.1L99.9125 154.087L100 154.063V133.963Z" fill="#EBEBEB"/>
<path d="M99.9312 83.7938V103.113H123.719L121.481 128.169L99.9312 133.981V154.081L139.537 143.1L139.825 139.838L144.362 88.9813L144.837 83.7938H99.9312V83.7938ZM99.9312 44.6938V64.0125H146.594L146.981 59.675L147.862 49.8813L148.325 44.6938H99.9312V44.6938Z" fill="white"/>
</svg>
