<?xml version="1.0" encoding="UTF-8"?>
<svg width="26.458mm" height="17.198mm" version="1.1" viewBox="0 0 26.458 17.198" xmlns="http://www.w3.org/2000/svg">
 <defs>
  <linearGradient id="linearGradient5385" x1="5.25e-6" x2="13.229" y1="2.6458" y2="2.6458" gradientTransform="translate(112.45 80.698)" gradientUnits="userSpaceOnUse">
   <stop stop-color="#2869ff" offset="0"/>
   <stop stop-color="#2869ff" stop-opacity=".63922" offset=".4"/>
   <stop stop-color="#28ffbe" stop-opacity=".94118" offset="1"/>
  </linearGradient>
  <linearGradient id="linearGradient13031" x1="112.45" x2="125.68" y1="91.281" y2="91.281" gradientUnits="userSpaceOnUse">
   <stop stop-color="#2869ff" offset="0"/>
   <stop stop-color="#2869ff" stop-opacity=".63922" offset=".4"/>
   <stop stop-color="#28ffbe" offset="1"/>
  </linearGradient>
 </defs>
 <g transform="translate(-112.45 -80.698)">
  <g fill="#2869ff">
   <path d="m112.45 84.667v13.229h2.6458l5.2917-8.8194v4.4097h2.6458l-1.8521 3.0868 16.14 1.3229 1.5875-2.6458h-14.287l2.1167-3.5278h-2.6458l1.0583-1.7639h1.3229l1.0583-1.7639h-1.3229l1.0583-1.7639h3.9688l-4.2334 7.0556h6.6146l1.0583-1.7639 4.2333-7.0556h-13.229l-2.1167 3.5278h-0.52917v-3.5278h-2.6458l-5.2917 8.8194v-8.8194zm21.431 1.7639h1.3229l-1.0583 1.7639h-1.3229zm-2.1167 3.5278h1.3229l-1.0583 1.7639h-1.3229z" fill="url(#linearGradient13031)"/>
   <path d="m125.68 82.682a1.9844 1.9844 0 0 1-1.9844 1.9844 1.9844 1.9844 0 0 1-1.9844-1.9844 1.9844 1.9844 0 0 1 1.9844-1.9844 1.9844 1.9844 0 0 1 1.9844 1.9844z" fill="url(#linearGradient5385)" fill-rule="evenodd" stop-color="#000000" stroke-width=".19844" style="paint-order:stroke fill markers"/>
   <path d="m130.97 82.815 1.8521 3.175 6.0854-3.9688z" fill="#28ffbe"/>
  </g>
 </g>
 <path d="m0 17.198h2.6458l5.2917-8.8193z"/>
 <path d="m12.701 9.2605-4.7634 3.5278h2.6458l-1.8521 3.0868 16.14 1.3229-12.7-2.6458 2.1167-3.5278h-2.6458z" fill="none"/>
 <g>
  <path d="m14.818 5.7327-6.88 7.0556h2.6458l-1.8521 3.0868 16.14 1.3229-12.7-2.6458 2.1167-3.5278h-2.6458l1.0583-1.7639h1.3229l1.0583-1.7639h-1.3229z"/>
  <path d="m26.459 3.9688-6.8802 7.0558-5.026 1.7637h6.6146z"/>
  <path d="m26.458 1.3232-3.9679 2.6456h-2.8887z"/>
 </g>
</svg>
