<?xml version="1.0" encoding="UTF-8" standalone="no"?>
<!-- Created with Inkscape (http://www.inkscape.org/) -->

<svg
   width="500"
   height="150"
   viewBox="0 0 132.29167 39.687499"
   version="1.1"
   id="svg5"
   shape-rendering="crispEdges"
   inkscape:version="1.1.1 (3bf5ae0d25, 2021-09-20)"
   sodipodi:docname="雲文様.svg"
   xmlns:inkscape="http://www.inkscape.org/namespaces/inkscape"
   xmlns:sodipodi="http://sodipodi.sourceforge.net/DTD/sodipodi-0.dtd"
   xmlns="http://www.w3.org/2000/svg"
   xmlns:svg="http://www.w3.org/2000/svg">
  <sodipodi:namedview
     id="namedview7"
     pagecolor="#ffffff"
     bordercolor="#666666"
     borderopacity="1.0"
     inkscape:pageshadow="2"
     inkscape:pageopacity="1"
     inkscape:pagecheckerboard="false"
     inkscape:document-units="px"
     showgrid="true"
     units="px"
     borderlayer="true"
     inkscape:showpageshadow="true"
     showborder="true"
     inkscape:zoom="0.98603159"
     inkscape:cx="130.82745"
     inkscape:cy="164.29494"
     inkscape:window-width="1920"
     inkscape:window-height="1046"
     inkscape:window-x="-11"
     inkscape:window-y="-11"
     inkscape:window-maximized="1"
     inkscape:current-layer="layer1"
     inkscape:snap-grids="true"
     showguides="true"
     width="500px">
    <inkscape:grid
       type="xygrid"
       id="grid2042" />
  </sodipodi:namedview>
  <defs
     id="defs2" />
  <g
     inkscape:label="Layer 1"
     inkscape:groupmode="layer"
     id="layer1">
    <path
       id="path4311"
       style="color:#000000;fill:#d3bc5f;stroke-width:0.636712;stroke-linecap:round;stroke-miterlimit:0;-inkscape-stroke:none"
       d="M 21.632209,6.1047617e-5 A 4.4693278,3.9687288 0 0 0 17.162186,3.96785 4.4693278,3.9687288 0 0 0 21.632209,7.9371887 h 57.02852 c 0.10637,4.1e-5 0.2127,0.0035 0.31879,0.01023 0.10617,0.0067 0.21203,0.01669 0.31739,0.03007 0.10528,0.01352 0.20998,0.03039 0.3139,0.05053 0.10391,0.02009 0.20698,0.04346 0.30901,0.07007 0.10208,0.02666 0.20306,0.05655 0.30272,0.08961 0.0997,0.03294 0.19795,0.06904 0.2947,0.108209 0.0968,0.03924 0.19191,0.08154 0.28527,0.126814 0.0934,0.04535 0.18493,0.09365 0.27445,0.144797 0.0894,0.05107 0.17677,0.104943 0.26187,0.161538 0.0851,0.05658 0.16791,0.115839 0.24825,0.177663 0.0804,0.06189 0.15835,0.126327 0.23359,0.193165 0.0753,0.06682 0.14783,0.136005 0.21754,0.207427 0.0696,0.07135 0.13635,0.144877 0.20006,0.22045 0.0637,0.07567 0.12442,0.153336 0.18193,0.232853 0.0575,0.07948 0.11176,0.160774 0.16271,0.2437023 0.051,0.0829 0.0986,0.167396 0.14281,0.253316 0.0441,0.08591 0.0848,0.173199 0.12186,0.261689 0.0372,0.08851 0.0709,0.178174 0.10091,0.268818 0.03,0.0906 0.0563,0.182129 0.0789,0.2744 0.0226,0.09229 0.0415,0.18526 0.0565,0.278741 0.0151,0.09356 0.0264,0.187565 0.0339,0.281841 0.008,0.09421 0.0115,0.188628 0.0116,0.283081 -5e-5,0.09445 -0.004,0.188873 -0.0116,0.28308 -0.007,0.09427 -0.0188,0.188282 -0.0339,0.281841 -0.0151,0.09348 -0.034,0.186454 -0.0565,0.278741 -0.0226,0.09227 -0.0489,0.183796 -0.0789,0.2744 -0.03,0.09064 -0.0636,0.180309 -0.10091,0.268819 -0.0371,0.08849 -0.0778,0.175773 -0.12186,0.261688 -0.0442,0.08592 -0.0918,0.170413 -0.14281,0.253315 -0.0509,0.08293 -0.10522,0.164216 -0.16271,0.243704 -0.0575,0.07952 -0.11818,0.157183 -0.18193,0.232851 -0.0637,0.07557 -0.13044,0.149104 -0.20006,0.22045 -0.0697,0.07142 -0.14227,0.140608 -0.21754,0.207428 -0.0752,0.06684 -0.15316,0.131268 -0.23359,0.193166 -0.0803,0.06182 -0.16315,0.121082 -0.24825,0.177661 -0.0851,0.0566 -0.17245,0.110476 -0.26187,0.16154 -0.0895,0.05115 -0.18106,0.09945 -0.27445,0.144796 -0.0934,0.04527 -0.18851,0.08757 -0.28527,0.126813 -0.0968,0.03917 -0.19504,0.07527 -0.2947,0.10821 -0.0997,0.03306 -0.20064,0.06295 -0.30272,0.08961 -0.10203,0.02661 -0.2051,0.04999 -0.30901,0.07007 -0.10392,0.02016 -0.20862,0.03701 -0.3139,0.05053 -0.10536,0.01338 -0.21122,0.02341 -0.31739,0.03008 -0.10284,0.0066 -0.20591,0.0097 -0.30901,0.0099 h -40.23401 a 4.4693314,3.9687288 0 0 0 -4.46967,3.967789 4.4693314,3.9687288 0 0 0 4.46967,3.969345 h 8.04722 c -6.7e-4,10e-5 -10e-4,2e-4 -0.002,3e-4 0.10637,4e-5 0.2127,0.004 0.3188,0.0102 0.10616,0.007 0.21203,0.017 0.31738,0.0304 0.10528,0.0134 0.20997,0.0302 0.3139,0.0503 0.10391,0.0201 0.20698,0.0434 0.30901,0.0701 0.10208,0.0266 0.20306,0.0566 0.30273,0.0896 0.0996,0.033 0.19795,0.0693 0.2947,0.10852 0.0968,0.0392 0.19191,0.0815 0.28527,0.12681 0.0934,0.0453 0.18493,0.0934 0.27444,0.14448 0.0894,0.0511 0.17677,0.10495 0.26187,0.16155 0.0851,0.0567 0.16792,0.11604 0.24826,0.17797 0.0804,0.0618 0.15834,0.12612 0.23359,0.19285 0.0753,0.0668 0.14783,0.13601 0.21753,0.20744 0.0696,0.0715 0.13637,0.14507 0.20007,0.22075 0.0637,0.0756 0.12441,0.15313 0.18192,0.23255 0.0575,0.0795 0.11176,0.16076 0.16271,0.2437 0.051,0.0829 0.0986,0.16739 0.14281,0.25332 0.0441,0.086 0.0848,0.17319 0.12186,0.26167 0.0372,0.0885 0.0709,0.17818 0.1009,0.26883 0.03,0.0907 0.0563,0.18233 0.0789,0.2747 0.0226,0.0923 0.0414,0.18526 0.0565,0.27874 0.0151,0.0935 0.0264,0.18736 0.0339,0.28153 0.008,0.0942 0.0115,0.18863 0.0115,0.28309 -1.2e-4,0.25996 -0.029,0.51927 -0.0862,0.77421 -0.0571,0.25484 -0.14223,0.50407 -0.25419,0.74413 -0.11205,0.24018 -0.2504,0.47 -0.41306,0.68616 -0.16256,0.21606 -0.34863,0.41743 -0.55552,0.60119 -0.20695,0.18372 -0.43372,0.34895 -0.67704,0.49331 -0.24341,0.14444 -0.50222,0.2673 -0.7727,0.36679 -0.27034,0.0994 -0.55102,0.17502 -0.838,0.22572 -0.28709,0.0508 -0.57912,0.0765 -0.87186,0.0765 H 4.469668 A 4.4693314,3.9687288 0 0 0 1.2872181e-8,35.71847 4.4693314,3.9687288 0 0 0 4.469668,39.6875 h 89.386051 a 4.4693314,3.9687288 0 0 0 4.46967,-3.96903 4.4693314,3.9687288 0 0 0 -4.46967,-3.96903 h -25.92136 c -0.46893,3e-5 -0.93495,-0.0654 -1.38095,-0.19409 -0.446,-0.1287 -0.86642,-0.31891 -1.24582,-0.56369 -0.37943,-0.2447 -0.71313,-0.54092 -0.98885,-0.87776 -0.27576,-0.33689 -0.49009,-0.71022 -0.63512,-1.10629 -0.14498,-0.39602 -0.21885,-0.80985 -0.21893,-1.22627 -7e-5,-0.41651 0.0737,-0.83044 0.21858,-1.22658 0.14492,-0.39604 0.35914,-0.76937 0.63478,-1.10627 0.27576,-0.3371 0.60958,-0.63352 0.98919,-0.8784 0.3794,-0.24477 0.79982,-0.43499 1.24582,-0.56368 0.44611,-0.12866 0.91225,-0.19416 1.3813,-0.19409 -6.8e-4,-1.2e-4 -0.001,-2e-4 -0.003,-3.1e-4 H 127.822 a 4.4693314,3.9687288 0 0 0 4.46967,-3.969345 4.4693314,3.9687288 0 0 0 -4.46967,-3.967788 h -27.71608 c -0.290388,-4.12e-4 -0.580058,-0.02565 -0.864878,-0.07597 -0.287223,-0.05066 -0.568133,-0.126264 -0.838693,-0.22572 -0.27048,-0.0995 -0.52929,-0.222354 -0.77271,-0.366798 -0.24345,-0.144435 -0.47033,-0.309766 -0.67737,-0.493609 -0.20704,-0.183848 -0.39322,-0.385322 -0.55587,-0.601509 -0.16267,-0.216151 -0.30102,-0.445973 -0.41307,-0.686154 -0.112,-0.240258 -0.19714,-0.489707 -0.2542,-0.744755 -0.0571,-0.254964 -0.0859,-0.514265 -0.0859,-0.77421 0,-0.259945 0.0288,-0.519261 0.0859,-0.774209 0.057,-0.255048 0.1422,-0.504498 0.2542,-0.744756 0.11205,-0.240178 0.2504,-0.4700033 0.41307,-0.6861533 0.16265,-0.216188 0.34883,-0.417661 0.55587,-0.60151 0.20704,-0.183841 0.43392,-0.349173 0.67737,-0.493608 0.24342,-0.144446 0.50223,-0.267301 0.77271,-0.366798 0.27056,-0.09946 0.55147,-0.17506 0.838693,-0.22572 0.2871,-0.05072 0.57913,-0.07627 0.871868,-0.07627 h 10.90444 A 4.4693278,3.9687288 0 0 0 115.48737,3.967788 4.4693278,3.9687288 0 0 0 111.01735,4.761653e-8 Z" />
  </g>
</svg>
