<svg width="200" height="200" viewBox="0 0 200 200" fill="none" xmlns="http://www.w3.org/2000/svg">
<path d="M184.2 92.2062L107.794 15.8C106.748 14.7512 105.506 13.919 104.139 13.3512C102.772 12.7834 101.305 12.4911 99.8248 12.4911C98.3441 12.4911 96.8781 12.7834 95.5106 13.3512C94.1431 13.919 92.9012 14.7512 91.8561 15.8L75.9873 31.6688L96.1123 51.7938C98.4855 50.9861 101.038 50.8614 103.478 51.4337C105.919 52.0061 108.15 53.2525 109.917 55.0309C111.683 56.8094 112.915 59.0483 113.471 61.4927C114.027 63.937 113.886 66.4885 113.062 68.8563L132.437 88.2312C135.333 87.2363 138.483 87.2639 141.361 88.3092C144.24 89.3546 146.673 91.3547 148.255 93.9763C149.838 96.5978 150.474 99.6826 150.059 102.716C149.643 105.75 148.2 108.55 145.971 110.649C143.741 112.749 140.86 114.021 137.807 114.253C134.753 114.486 131.712 113.665 129.191 111.928C126.669 110.191 124.818 107.642 123.948 104.706C123.077 101.77 123.239 98.6249 124.406 95.7937L106.312 77.7V125.306C109.053 126.664 111.246 128.92 112.526 131.699C113.805 134.477 114.094 137.61 113.345 140.576C112.595 143.541 110.852 146.16 108.406 147.997C105.96 149.834 102.959 150.777 99.9015 150.669C96.8446 150.562 93.9167 149.41 91.6056 147.407C89.2944 145.403 87.7396 142.668 87.2001 139.657C86.6606 136.646 87.1689 133.541 88.6404 130.859C90.112 128.178 92.4578 126.081 95.2873 124.919V76.875C93.6504 76.2034 92.1625 75.2145 90.9094 73.9654C89.6563 72.7163 88.6627 71.2316 87.9859 69.5968C87.3091 67.962 86.9625 66.2095 86.9659 64.4401C86.9694 62.6708 87.3229 60.9196 88.0061 59.2875L68.1936 39.4625L15.7998 91.875C14.7501 92.9203 13.9171 94.1626 13.3487 95.5306C12.7804 96.8987 12.4878 98.3655 12.4878 99.8469C12.4878 101.328 12.7804 102.795 13.3487 104.163C13.9171 105.531 14.7501 106.773 15.7998 107.819L92.2061 184.2C93.2512 185.249 94.4931 186.081 95.8606 186.649C97.2281 187.217 98.6941 187.509 100.175 187.509C101.655 187.509 103.122 187.217 104.489 186.649C105.856 186.081 107.098 185.249 108.144 184.2L184.2 108.125C185.25 107.08 186.082 105.837 186.651 104.469C187.219 103.101 187.512 101.635 187.512 100.153C187.512 98.6717 187.219 97.2049 186.651 95.8369C186.082 94.4688 185.25 93.2265 184.2 92.1812" fill="#171717"/>
<path d="M75.9876 31.6688L96.1126 51.7938C98.4858 50.9861 101.038 50.8614 103.479 51.4337C105.919 52.0061 108.15 53.2525 109.917 55.0309C111.684 56.8094 112.915 59.0483 113.471 61.4927C114.028 63.9371 113.886 66.4885 113.063 68.8563L132.438 88.2313C135.334 87.2363 138.483 87.2639 141.362 88.3092C144.24 89.3546 146.673 91.3547 148.256 93.9763C149.838 96.5979 150.475 99.6826 150.059 102.716C149.643 105.75 148.201 108.55 145.971 110.649C143.742 112.749 140.86 114.021 137.807 114.253C134.754 114.486 131.713 113.665 129.191 111.928C126.669 110.191 124.819 107.642 123.948 104.706C123.078 101.77 123.239 98.6249 124.406 95.7938L106.313 77.7V125.306C109.053 126.664 111.246 128.92 112.526 131.699C113.806 134.477 114.095 137.61 113.345 140.576C112.596 143.541 110.853 146.16 108.406 147.997C105.96 149.834 102.959 150.777 99.9018 150.669C96.8449 150.562 93.917 149.41 91.6058 147.407C89.2947 145.403 87.7399 142.668 87.2004 139.657C86.6609 136.646 87.1692 133.541 88.6407 130.859C90.1123 128.178 92.4581 126.081 95.2876 124.919V76.875C93.6507 76.2034 92.1628 75.2146 90.9097 73.9654C89.6566 72.7163 88.663 71.2316 87.9862 69.5968C87.3094 67.962 86.9628 66.2095 86.9662 64.4402C86.9697 62.6708 87.3232 60.9196 88.0063 59.2875L68.1938 39.4625" fill="#28FFBE"/>
</svg>
