<svg width="900" height="600" viewBox="0 0 900 600" fill="none" xmlns="http://www.w3.org/2000/svg">
<rect width="900" height="600" fill="white"/>
<circle cx="750" cy="348" r="60" fill="#F1662A"/>
<path d="M205.331 405.009L184.266 168.75H415.734L394.641 404.972L299.859 431.25L205.331 405.009Z" fill="#E44F26"/>
<path d="M300 411.169L376.594 389.934L394.612 188.072H300V411.169Z" fill="#F1662A"/>
<path d="M300 275.691H261.656L259.013 246.019H300V217.041H227.344L228.038 224.822L235.153 304.669H300V275.691ZM300 350.944L299.869 350.981L267.6 342.272L265.538 319.163H236.447L240.506 364.65L299.869 381.131L300 381.094V350.944Z" fill="#EBEBEB"/>
<path d="M299.896 275.691V304.669H335.578L332.221 342.253L299.896 350.972V381.122L359.306 364.65L359.737 359.756L366.543 283.472L367.256 275.691H299.896ZM299.896 217.041V246.019H369.89L370.471 239.513L371.793 224.822L372.487 217.041H299.896Z" fill="white"/>
<path d="M505.332 405.009L484.275 168.75H715.725L694.641 404.972L599.86 431.25L505.332 405.009Z" fill="#1572B6"/>
<path d="M600 411.169L676.594 389.934L694.612 188.072H600V411.169Z" fill="#33A9DC"/>
<path d="M600 273.666H638.344L640.987 243.994H600V215.016H672.656L671.963 222.787L664.847 302.644H600V273.666Z" fill="white"/>
<path d="M600.178 348.919L600.047 348.956L567.778 340.237L565.716 317.128H536.625L540.684 362.625L600.037 379.106L600.178 379.069V348.919Z" fill="#EBEBEB"/>
<path d="M635.878 301.416L632.391 340.219L600.075 348.938V379.088L659.475 362.625L659.916 357.731L664.95 301.416H635.878Z" fill="white"/>
<path d="M600.103 215.016V243.994H530.11L529.528 237.478L528.206 222.787L527.513 215.016H600.103ZM600 273.666V302.644H568.135L567.553 296.128L566.241 281.438L565.547 273.666H600Z" fill="#EBEBEB"/>
<circle cx="155" cy="111" r="65" fill="#28FFBE"/>
<circle cx="296" cy="490" r="40" fill="#2869FF"/>
<circle cx="427.5" cy="140.5" r="22.5" fill="#1572B6"/>
</svg>
