<svg width="900" height="600" viewBox="0 0 900 600" fill="none" xmlns="http://www.w3.org/2000/svg">
<rect width="900" height="600" fill="white"/>
<g clip-path="url(#clip0_623_168)">
<path d="M629 120H270V479H629V120Z" fill="#F7DF1E"/>
<path d="M511.157 400.47C518.388 412.277 527.796 420.956 544.436 420.956C558.414 420.956 567.343 413.97 567.343 404.317C567.343 392.749 558.169 388.652 542.783 381.922L534.349 378.303C510.006 367.932 493.834 354.94 493.834 327.474C493.834 302.173 513.111 282.912 543.239 282.912C564.688 282.912 580.108 290.377 591.22 309.922L564.95 326.79C559.166 316.419 552.926 312.333 543.239 312.333C533.358 312.333 527.095 318.601 527.095 326.79C527.095 336.91 533.364 341.007 547.838 347.275L556.271 350.888C584.934 363.18 601.118 375.711 601.118 403.884C601.118 434.256 577.259 450.895 545.216 450.895C513.886 450.895 493.646 435.966 483.742 416.397L511.157 400.47ZM391.986 403.393C397.286 412.796 402.106 420.745 413.697 420.745C424.78 420.745 431.772 416.409 431.772 399.547V284.838H465.507V400.003C465.507 434.934 445.027 450.833 415.133 450.833C388.123 450.833 372.48 436.855 364.525 420.019L391.986 403.393Z" fill="black"/>
</g>
<circle cx="191.5" cy="198.5" r="24.5" fill="#28FFBE"/>
<circle cx="772" cy="407" r="40" fill="#28FFBE"/>
<circle cx="738" cy="144" r="55" fill="#2869FF"/>
<circle cx="112" cy="338" r="55" fill="#F7DF1E"/>
<defs>
<clipPath id="clip0_623_168">
<rect width="359" height="359" fill="white" transform="translate(270 120)"/>
</clipPath>
</defs>
</svg>
