<svg width="858" height="502" viewBox="0 0 858 502" fill="none" xmlns="http://www.w3.org/2000/svg">
<rect width="858" height="502" fill="white"/>
<path d="M184.331 356.009L163.266 119.75H394.734L373.641 355.972L278.859 382.25L184.331 356.009Z" fill="#E44F26"/>
<path d="M279 362.169L355.594 340.934L373.612 139.072H279V362.169Z" fill="#F1662A"/>
<path d="M279 226.691H240.656L238.013 197.019H279V168.041H206.344L207.038 175.822L214.153 255.669H279V226.691V226.691ZM279 301.944L278.869 301.981L246.6 293.272L244.538 270.163H215.447L219.506 315.65L278.869 332.131L279 332.094V301.944Z" fill="#EBEBEB"/>
<path d="M278.896 226.691V255.669H314.578L311.221 293.253L278.896 301.972V332.122L338.306 315.65L338.737 310.756L345.543 234.472L346.256 226.691H278.896V226.691ZM278.896 168.041V197.019H348.89L349.471 190.513L350.793 175.822L351.487 168.041H278.896V168.041Z" fill="white"/>
<path d="M484.332 356.009L463.275 119.75H694.725L673.641 355.972L578.86 382.25L484.332 356.009Z" fill="#1572B6"/>
<path d="M579 362.169L655.594 340.934L673.612 139.072H579V362.169Z" fill="#33A9DC"/>
<path d="M579 224.666H617.344L619.987 194.994H579V166.016H651.656L650.963 173.787L643.847 253.644H579V224.666V224.666Z" fill="white"/>
<path d="M579.178 299.919L579.047 299.956L546.778 291.237L544.716 268.128H515.625L519.684 313.625L579.037 330.106L579.178 330.069V299.919V299.919Z" fill="#EBEBEB"/>
<path d="M614.878 252.416L611.391 291.219L579.075 299.938V330.088L638.475 313.625L638.916 308.731L643.95 252.416H614.878V252.416Z" fill="white"/>
<path d="M579.103 166.016V194.994H509.11L508.528 188.478L507.206 173.787L506.513 166.016H579.103V166.016ZM579 224.666V253.644H547.135L546.553 247.128L545.241 232.438L544.547 224.666H579V224.666Z" fill="#EBEBEB"/>
</svg>
