<svg width="900" height="600" viewBox="0 0 900 600" fill="none" xmlns="http://www.w3.org/2000/svg">
<rect width="900" height="600" fill="white"/>
<path d="M618 94C601.585 94 585.33 97.2336 570.165 103.516C554.999 109.799 541.219 119.008 529.612 130.616C506.17 154.062 493 185.86 493 219.017C493 274.274 528.875 321.155 578.5 337.782C584.75 338.782 586.75 334.907 586.75 331.531V310.404C552.125 317.905 544.75 293.651 544.75 293.651C539 279.149 530.875 275.274 530.875 275.274C519.5 267.523 531.75 267.773 531.75 267.773C544.25 268.648 550.875 280.65 550.875 280.65C561.75 299.652 580.125 294.026 587.25 291.026C588.375 282.9 591.625 277.399 595.125 274.274C567.375 271.148 538.25 260.397 538.25 212.766C538.25 198.889 543 187.762 551.125 178.886C549.875 175.761 545.5 162.759 552.375 145.882C552.375 145.882 562.875 142.506 586.75 158.634C596.625 155.883 607.375 154.508 618 154.508C628.625 154.508 639.375 155.883 649.25 158.634C673.125 142.506 683.625 145.882 683.625 145.882C690.5 162.759 686.125 175.761 684.875 178.886C693 187.762 697.75 198.889 697.75 212.766C697.75 260.522 668.5 271.023 640.625 274.149C645.125 278.024 649.25 285.65 649.25 297.277V331.531C649.25 334.907 651.25 338.907 657.625 337.782C707.25 321.03 743 274.274 743 219.017C743 202.599 739.767 186.342 733.485 171.175C727.203 156.007 717.996 142.225 706.388 130.616C694.781 119.008 681.001 109.799 665.835 103.516C650.67 97.2336 634.415 94 618 94Z" fill="black"/>
<path d="M461.605 222.815L401.062 193.667C397.643 192.018 393.795 191.474 390.053 192.11C386.311 192.746 382.86 194.531 380.177 197.216L181.99 377.9C179.585 380.082 178.146 383.13 177.988 386.373C177.831 389.616 178.968 392.789 181.15 395.194C181.412 395.477 181.675 395.75 181.958 396.002L198.139 410.702C200.253 412.626 202.974 413.749 205.83 413.876C208.687 414.002 211.497 413.125 213.773 411.395L452.491 230.375C454.294 229.007 456.443 228.169 458.696 227.956C460.95 227.743 463.218 228.163 465.245 229.169C467.273 230.175 468.979 231.728 470.173 233.651C471.366 235.574 471.999 237.793 472 240.056V239.352C471.999 235.897 471.024 232.512 469.185 229.586C467.346 226.66 464.718 224.313 461.605 222.815V222.815Z" fill="#0065A9"/>
<path d="M461.605 453.185L401.062 482.344C397.641 483.987 393.795 484.529 390.054 483.893C386.313 483.257 382.862 481.476 380.177 478.795L181.99 298.1C179.585 295.918 178.146 292.87 177.988 289.627C177.831 286.384 178.968 283.211 181.15 280.806C181.412 280.523 181.675 280.25 181.958 279.998L198.139 265.298C200.255 263.366 202.983 262.238 205.846 262.111C208.709 261.984 211.526 262.867 213.805 264.605L452.491 445.625C454.294 446.993 456.443 447.831 458.696 448.044C460.95 448.257 463.218 447.837 465.245 446.831C467.273 445.825 468.979 444.272 470.173 442.349C471.366 440.426 471.999 438.207 472 435.944V436.7C471.988 440.146 471.007 443.52 469.169 446.435C467.331 449.35 464.709 451.689 461.605 453.185V453.185Z" fill="#007ACC"/>
<path d="M401.062 482.344C397.642 483.987 393.796 484.529 390.055 483.893C386.314 483.257 382.863 481.476 380.178 478.795C381.686 480.283 383.599 481.293 385.679 481.698C387.758 482.103 389.911 481.886 391.867 481.073C393.824 480.26 395.497 478.888 396.677 477.129C397.856 475.369 398.491 473.301 398.5 471.182V204.818C398.502 202.69 397.872 200.608 396.69 198.838C395.508 197.068 393.827 195.689 391.861 194.875C389.894 194.061 387.73 193.848 385.643 194.265C383.555 194.682 381.639 195.709 380.136 197.216C382.819 194.532 386.27 192.747 390.011 192.109C393.752 191.472 397.599 192.012 401.02 193.656L461.553 222.763C464.676 224.253 467.315 226.597 469.163 229.523C471.012 232.45 471.995 235.839 472 239.3V436.7C472.001 440.158 471.025 443.547 469.184 446.474C467.343 449.402 464.712 451.75 461.595 453.248L401.062 482.344Z" fill="#1F9CF0"/>
<circle cx="272.5" cy="505.5" r="37.5" fill="#2869FF"/>
<circle cx="159.5" cy="120.5" r="71.5" fill="black"/>
<circle cx="776.5" cy="356.5" r="42.5" fill="#007ACC"/>
<circle cx="546" cy="414" r="27" fill="#28FFBE"/>
</svg>
