<svg width="407" height="100" viewBox="0 0 407 100" fill="none" xmlns="http://www.w3.org/2000/svg">
<path fill-rule="evenodd" clip-rule="evenodd" d="M75.5786 95.5824C69.3025 98.4202 62.3357 100 55 100C29.4163 100 8.32043 80.7854 5.3563 56H0V43H5.48612C8.89042 18.6997 29.7614 0 55 0C66.9202 0 77.866 4.17126 86.4576 11.1338L75.8465 21.8828C70.0234 17.5584 62.8105 15 55 15C38.0673 15 23.943 27.0243 20.7001 43H89.2999H100H104.514C104.834 45.2874 105 47.6243 105 50C105 58.1771 103.037 65.8958 99.5567 72.7105L86.2863 65.7067C87.8017 62.6942 88.8947 59.4327 89.4877 56H20.5123C23.3578 72.4712 37.7158 85 55 85C59.9791 85 64.7153 83.9603 69.0035 82.0862L75.5786 95.5824Z" fill="#4285F4"/>
<path fill-rule="evenodd" clip-rule="evenodd" d="M145 100C162.673 100 177 85.6731 177 68C177 50.3269 162.673 36 145 36C127.327 36 113 50.3269 113 68C113 85.6731 127.327 100 145 100ZM144.5 87C154.165 87 162 78.4934 162 68C162 57.5066 154.165 49 144.5 49C134.835 49 127 57.5066 127 68C127 78.4934 134.835 87 144.5 87Z" fill="#EA4335"/>
<path fill-rule="evenodd" clip-rule="evenodd" d="M185 36H199V66H199.007C199.282 76.9843 207.008 85.7906 216.5 85.7906C225.991 85.7906 233.718 76.9843 233.992 66H234V36H249V66H248.998C248.823 84.8098 234.564 100 217 100C199.436 100 185.176 84.8098 185.001 66H185V36Z" fill="#FBBC05"/>
<path fill-rule="evenodd" clip-rule="evenodd" d="M271.002 36H257.002V100H271.002V36ZM321.002 64H306.002V100H321.002V64Z" fill="#4285F4"/>
<path fill-rule="evenodd" clip-rule="evenodd" d="M320.999 64C320.824 48.5096 306.564 36 289 36C271.436 36 257.177 48.5096 257.002 64L271.003 64C271.003 63.9321 271.002 63.8642 271.002 63.7961C271.002 54.5199 278.837 47 288.502 47C298.167 47 306.002 54.5199 306.002 63.7961C306.002 63.8642 306.002 63.9321 306.001 64L320.999 64ZM257 64.2685C257 64.2751 257 64.2816 257 64.2882C257 64.2948 257 64.3014 257 64.308L257 64.2685Z" fill="#4285F4"/>
<path fill-rule="evenodd" clip-rule="evenodd" d="M361.002 100C378.675 100 393.002 85.6731 393.002 68C393.002 50.3269 378.675 36 361.002 36C343.329 36 329.002 50.3269 329.002 68C329.002 85.6731 343.329 100 361.002 100ZM360.502 87C370.167 87 378.002 78.4934 378.002 68C378.002 57.5066 370.167 49 360.502 49C350.837 49 343.002 57.5066 343.002 68C343.002 78.4934 350.837 87 360.502 87Z" fill="#EA4335"/>
<rect x="393.002" y="5" width="13" height="95" fill="#34A853"/>
<path d="M115.24 10.4H118.76V13.12H118.92C119.48 12.16 120.333 11.36 121.48 10.72C122.653 10.08 123.867 9.76 125.12 9.76C127.52 9.76 129.36 10.4533 130.64 11.84C131.947 13.2 132.6 15.1467 132.6 17.68V30H128.92V17.92C128.84 14.72 127.227 13.12 124.08 13.12C122.613 13.12 121.387 13.72 120.4 14.92C119.413 16.0933 118.92 17.5067 118.92 19.16V30H115.24V10.4Z" fill="#34A853"/>
<path d="M135.8 20.2C135.8 17.1867 136.746 14.6933 138.64 12.72C140.56 10.7467 142.973 9.76 145.88 9.76C148.786 9.76 151.186 10.7467 153.08 12.72C155 14.6933 155.96 17.1867 155.96 20.2C155.96 23.24 155 25.7333 153.08 27.68C151.186 29.6533 148.786 30.64 145.88 30.64C142.973 30.64 140.56 29.6533 138.64 27.68C136.746 25.7067 135.8 23.2133 135.8 20.2ZM139.48 20.2C139.48 22.3067 140.093 24.0133 141.32 25.32C142.546 26.6267 144.066 27.28 145.88 27.28C147.693 27.28 149.213 26.6267 150.44 25.32C151.666 24.0133 152.28 22.3067 152.28 20.2C152.28 18.12 151.666 16.4267 150.44 15.12C149.186 13.7867 147.666 13.12 145.88 13.12C144.093 13.12 142.573 13.7867 141.32 15.12C140.093 16.4267 139.48 18.12 139.48 20.2Z" fill="#4285F4"/>
<path d="M167.062 30.32C165.463 30.32 164.129 29.8267 163.063 28.84C162.023 27.8533 161.489 26.48 161.463 24.72V13.76H158.023V10.4H161.463V4.4H165.143V10.4H169.943V13.76H165.143V23.52C165.143 24.8267 165.396 25.72 165.903 26.2C166.409 26.6533 166.983 26.88 167.622 26.88C167.916 26.88 168.196 26.8533 168.463 26.8C168.756 26.72 169.023 26.6267 169.263 26.52L170.423 29.8C169.463 30.1467 168.343 30.32 167.062 30.32Z" fill="#EA4335"/>
</svg>
