<svg width="15" height="26" viewBox="0 0 15 26" fill="none" xmlns="http://www.w3.org/2000/svg">
<path d="M6.16667 3C6.16667 4.47276 4.97276 5.66667 3.5 5.66667C2.02724 5.66667 0.833333 4.47276 0.833333 3C0.833333 1.52724 2.02724 0.333333 3.5 0.333333C4.97276 0.333333 6.16667 1.52724 6.16667 3ZM13.5 13L13.8536 12.6464L14.2071 13L13.8536 13.3536L13.5 13ZM6.16667 23C6.16667 24.4728 4.97276 25.6667 3.5 25.6667C2.02724 25.6667 0.833333 24.4728 0.833333 23C0.833333 21.5272 2.02724 20.3333 3.5 20.3333C4.97276 20.3333 6.16667 21.5272 6.16667 23ZM3.85355 2.64645L13.8536 12.6464L13.1464 13.3536L3.14645 3.35355L3.85355 2.64645ZM13.8536 13.3536L3.85355 23.3536L3.14645 22.6464L13.1464 12.6464L13.8536 13.3536Z" fill="white"/>
</svg>
