<?xml version="1.0" encoding="UTF-8"?>
<svg width="54.126mm" height="16.427mm" version="1.1" viewBox="0 0 54.126 16.427" xmlns="http://www.w3.org/2000/svg" xmlns:xlink="http://www.w3.org/1999/xlink">
 <defs>
  <linearGradient id="linearGradient4434" x1="76.936" x2="131.06" y1="51.289" y2="51.289" gradientUnits="userSpaceOnUse">
   <stop stop-color="#2869ff" offset="0"/>
   <stop stop-color="#28ffbe" offset="1"/>
  </linearGradient>
 </defs>
 <g transform="translate(-76.936 -43.075)">
  <g id="text__logo" fill="url(#linearGradient4434)" stroke-width=".50053" aria-label="Web Dojo">
   <path d="m93.642 43.741q-0.22023 0.26028-0.48051 0.46049t-0.62066 0.32034q-0.16017 0.24026-0.24026 0.58062-0.06006 0.34036-0.40043 0.44047-0.04004 0.46049-0.14015 0.88094-0.10011 0.42045-0.22023 0.82087-0.08008 0.2803-0.16017 0.58062-0.08009 0.30032-0.18019 0.62066-0.14015 0.48051-0.26028 1.0011t-0.2803 0.98104q-0.06006 0.18019-0.20021 0.36038-0.14015 0.18019-0.18019 0.36038-0.14015 0.60064-0.18019 1.2213-0.04004 0.60064-0.22023 1.1412-0.06006 0.20021-0.16017 0.40043-0.08009 0.18019-0.18019 0.36038-0.20021 0.40043-0.36038 0.80085-0.16017 0.40043-0.10011 0.88094-0.36038 0.32034-0.60064 0.2803-0.22023-0.04004-0.3804-0.30032-0.16017-0.26028-0.2803-0.6607-0.10011-0.42045-0.16017-0.8409-0.06006-0.42045-0.14015-0.68072-0.24026-0.96102-0.5606-2.0622-0.30032-1.1212-0.62066-2.2624-0.30032-1.1612-0.5606-2.1823-0.08009-0.36038-0.16017-0.70075-0.08008-0.36038-0.14015-0.68072-0.20021 0.2803-0.30032 0.64068-0.10011 0.36038-0.16017 0.72077-0.08008 0.46049-0.18019 0.92098-0.10011 0.44047-0.40043 0.74079-0.02002 0.80085-0.24026 1.5016-0.20021 0.70074-0.48051 1.3815-0.26028 0.68072-0.50053 1.4015-0.22023 0.72077-0.26028 1.6017-0.2803 0.2803-0.50053 0.64068-0.22023 0.34036-0.30032 0.86092-0.12013 0.10011-0.30032 0.08008-0.16017 0-0.32034-0.04004-0.16017-0.04004-0.24026-0.04004-0.50053-1.2613-0.8409-2.6829-0.34036-1.4415-0.64068-2.9031-0.18019-0.86092-0.34036-1.7218-0.16017-0.88094-0.34036-1.7419-0.14015-0.62066-0.2803-1.2213t-0.30032-1.1612q-0.02002-0.40043 0.06006-0.70075-0.20021-0.04004-0.3804-0.02002-0.16017 0-0.32034 0.02002-0.20021 0.02002-0.3804 0.02002-0.18019 0-0.40043-0.10011-0.26028-0.36038-0.16017-0.5606 0.12013-0.20021 0.30032-0.30032 0.42045 0.06006 0.82087 0.04004 0.42045-0.02002 0.82087-0.04004 0.22023-0.02002 0.42045-0.02002 0.20021-0.02002 0.40043-0.02002 0.54058 0 0.98104 0.14015t0.74079 0.60064q-0.32034 0.22023-0.8409 0.34036-0.50053 0.12013-0.80085 0.22023 0.22024 0.6607 0.40043 1.3614 0.20021 0.68072 0.36038 1.4015 0.3804 1.6017 0.72077 3.2434 0.36038 1.6417 0.80085 3.1834 0.60064-1.4816 1.0611-3.1233 0.46049-1.6618 0.90096-3.3035 0.2803-1.0011 0.58062-1.9421 0.30032-0.96102 0.6607-1.862 0.34036-0.02002 0.58062 0.08008 0.26028 0.08008 0.46049 0.18019 0.14015 0.82087 0.34036 1.7218 0.20021 0.90096 0.44047 1.842 0.40043 1.5016 0.82087 3.0232 0.44047 1.5016 0.74079 2.863 0.32034-0.76081 0.6607-1.7218 0.36038-0.96102 0.70074-2.0222 0.34036-1.0812 0.5606-2.1423l0.06006-0.2803q0.04004-0.18019 0.10011-0.3804 0.06006-0.20021 0.10011-0.40043 0.12013-0.40043 0.22023-0.78083 0.10011-0.3804 0.04004-0.62066-0.06006-0.2803-0.22024-0.40043-0.14015-0.12013-0.34036-0.16017-0.26028-0.06006-0.52055-0.10011-0.24026-0.06006-0.40043-0.30032 0.04004-0.36038 0.46049-0.50053 0.44047-0.16017 1.0011-0.16017 0.50053 0 1.0211 0.10011 0.52055 0.08009 0.941 0.22024 0.42045 0.12013 0.58062 0.26028z"/>
   <path d="m98.761 51.529q-0.6607 0.04004-1.5016 0.06006-0.82087 0.02002-1.6818 0.04004-0.86092 0-1.6217 0.02002-0.76081 0-1.2613 0.04004 0.02002 0.64068 0.10011 1.2814 0.08009 0.64068 0.34036 1.1412 0.40043 0.76081 1.2814 1.1412 0.90096 0.3804 2.0021-0.08009 0.42045-0.18019 0.74079-0.52055 0.34036-0.34036 0.68072-0.62066 0.36038-0.2803 0.82087-0.30032 0.10011 0.20021 0.02002 0.40043-0.08009 0.18019-0.18019 0.3804-0.08008 0.14015-0.12013 0.20021-0.16017 0.30032-0.36038 0.64068-0.18019 0.34036-0.50053 0.50053-0.12013 0.06006-0.44047 0.10011-0.32034 0.04004-0.58062 0.14015-0.14015 0.06006-0.48051 0.20021-0.34036 0.12013-0.70075 0.22023-0.36038 0.10011-0.58062 0.10011-0.48051-0.02002-0.86092-0.24026-0.3804-0.22023-0.74079-0.50053-0.36038-0.2803-0.76081-0.44047-0.64068-0.6607-0.98104-1.6417-0.32034-1.0011-0.32034-2.0422 0-1.0211 0.30032-1.9821 0.30032-0.98104 0.90096-1.6818 0.22023-0.2803 0.52055-0.48051 0.30032-0.22023 0.64068-0.3804 0.96102-0.46049 2.0222-0.40043 0.40043 0.02002 0.80085 0.12013 0.40043 0.08009 0.76081 0.2803 0.46049 0.22023 0.84089 0.68072 0.44047 0.80085 0.72077 1.7819 0.2803 0.96102 0.18019 1.842zm-1.4816-0.941q0.10011-1.4816-0.48051-2.1223-0.58062-0.6607-1.3815-0.6607-0.62066 0-1.2613 0.36038-0.62066 0.36038-1.0411 1.0011-0.40043 0.62066-0.40043 1.4616 0.54058-0.02002 1.0411-0.02002 0.50053 0 0.98104 0.02002 0.6607 0 1.2814 0 0.62066 0 1.2613-0.04004z"/>
   <path d="m105.14 48.846q0.22024 0.50053 0.30032 1.2013 0.10011 0.70074 0.0601 1.4616-0.04 0.76081-0.1802 1.4616-0.12012 0.70074-0.34036 1.2013-0.3804 0.92098-0.98104 1.4015-0.60064 0.46049-1.5416 0.92098-1.0812-0.06006-1.9821-0.30032-0.90096-0.26028-1.3815-0.941-0.08008 0.10011-0.14015 0.22023-0.06006 0.10011-0.12013 0.22023-0.10011 0.24026-0.26028 0.46049-0.16017 0.20021-0.54058 0.18019-0.10011-1.4816-0.10011-2.9031 0-1.4415 0.04004-2.863 0-0.8409 0.02002-1.6618 0.02002-0.8409 0-1.6818-0.02002-0.70075-0.04004-1.4015-0.02002-0.70075-0.08008-1.4215-0.08009-0.12013-0.26028-0.14015-0.18019-0.02002-0.40043 0-0.16017 0-0.32034 0-0.16017-0.02002-0.26028-0.08009-0.04004-0.40043 0.26028-0.60064 0.30032-0.20021 0.74079-0.24026 0.5606-0.06006 1.1612 0.04004 0.62066 0.08009 0.92098 0.18019-0.24026 0.80085-0.34036 1.7419-0.10011 0.92098-0.10011 1.922 0 0.34036 0 0.70074 0.02002 0.36038 0.04004 0.70075 0.34036-0.5606 0.8409-0.90096 0.52055-0.36038 1.1012-0.50053 0.22024-0.06006 0.44047-0.08009 0.24026-0.02002 0.46049-0.02002t0.44047 0.02002q0.24025 0.02002 0.46049 0.08009 0.68072 0.16017 1.2413 0.58062 0.5606 0.40043 0.84089 1.0411zm-1.1012 2.6028q0-0.82087-0.16017-1.5216-0.14015-0.72077-0.42045-1.1612-0.28029-0.44047-0.68072-0.62066-0.40043-0.18019-0.82087-0.18019-0.68073 0-1.3214 0.3804-0.62066 0.3804-0.86092 0.88094-0.14015 0.30032-0.2803 0.82087-0.12013 0.52055-0.22024 1.1612-0.10011 0.62066-0.10011 1.2213t0.14015 1.0211q0.12013 0.36038 0.36038 0.58062 0.24026 0.20021 0.48051 0.48051 0.24026 0.2803 0.30032 0.82087 0.68072 0.3804 1.2413 0.3804 0.78083-0.02002 1.3014-0.6607 0.52056-0.64068 0.78083-1.6217 0.26028-0.98104 0.26028-1.9821z"/>
   <path d="m114.54 50.808q-0.12013 1.2013-0.64068 2.1623-0.50054 0.96102-1.2614 1.6618-0.74078 0.70075-1.5817 1.1012-1.0011 0.34036-2.1623 0.42045-1.1612 0.06006-2.3425 0.06006-1.0411 0-2.0422 0.06006-0.98105 0.04004-1.8019 0.2803 0.04-0.34036 0.18019-0.60064 0.14015-0.26028 0.32034-0.46049 0.14015-0.04004 0.26028-0.04004t0.24025 0q0.12013 0.02002 0.24026 0.02002 0.14015 0 0.30032-0.06006 0.04-1.0611 0.02-2.2824 0-1.2413-0.02-2.5627-0.02-0.82087-0.04-1.6618 0-0.8409 0-1.6818 0-0.74079 0-1.4616 0.02-0.74079 0.04-1.4415-0.20021-0.10011-0.42045-0.10011-0.22023-0.02002-0.44047 0-0.20021 0-0.42044 0-0.20022-0.02002-0.36039-0.12013 0.0401-0.58062 0.48051-0.76081 0.44047-0.20021 0.98105-0.22024 1.1212-0.06006 2.4626-0.04004t2.6428 0.18019q1.3014 0.14015 2.3225 0.50053 1.0211 0.34036 1.4816 0.96102 0.3804 0.50053 0.70074 1.1412 0.32034 0.62066 0.54058 1.3815 0.22023 0.78083 0.32034 1.6818 0.1001 0.88094 0 1.882zm-1.9421-2.9832q-0.02-0.16017-0.0601-0.30032-0.02-0.14015-0.0601-0.2803-0.34036-1.3614-1.2814-2.0822-0.941-0.74079-2.3225-0.941-1.3614-0.22024-3.0032 0.04004 0 0.68072 0 1.4215 0.02 0.74079 0.02 1.5416 0.02 1.7619 0.02 3.6239t-0.04 3.5237q0 0.22024-0.04 0.50053-0.02 0.26028-0.12013 0.48051 0.38041-0.02002 0.72077-0.02002 0.36038 0 0.70075 0 0.6607 0 1.2613-0.02002t1.1212-0.14015q0.36038-0.10011 0.88094-0.30032 0.54057-0.20021 0.82087-0.42045 0.46049-0.36038 0.78083-1.1012 0.32034-0.76081 0.48051-1.7018 0.1802-0.96102 0.20022-1.9621 0.04-1.0011-0.0801-1.862z"/>
   <path d="m121.46 50.448q0.12012 1.1012-0.10011 2.2224-0.20021 1.1012-0.5606 2.0622-0.34036 0.12013-0.58061 0.3804-0.22024 0.26028-0.48051 0.48051-0.24026 0.22023-0.70075 0.26028-0.10011-0.02002-0.12013 0.04004-0.02 0.06006-0.02 0.14015 0 0.18019-0.0801 0.20021-0.82088 0.32034-1.6418 0.32034-0.90096 0-1.6418-0.36038-0.74079-0.36038-1.3014-0.98104-0.64068-0.70074-1.0011-1.6417-0.34036-0.941-0.36038-1.9621 0-0.70074 0.16017-1.3815 0.18019-0.70074 0.54058-1.3214 0.0801-0.14015 0.24025-0.24026 0.18019-0.12013 0.32034-0.30032 0.2803-0.34036 0.5606-0.64068 0.30032-0.32034 0.78083-0.50053 0.10011-0.04004 0.26028-0.08009 0.50053-0.14015 1.1012-0.20021 0.62066-0.06006 1.0011-0.02002 0.5606 0.06006 1.1012 0.30032 0.96103 0.44047 1.6818 1.3214 0.72077 0.88094 0.8409 1.902zm-1.4616 0.96102q-0.02-0.54058-0.20021-1.1612-0.16017-0.64068-0.38041-1.1612-0.22023-0.54058-0.3804-0.72077-0.26028-0.34036-0.72077-0.44047-0.44047-0.12013-0.72076-0.14015-0.74079-0.06006-1.3014 0.20021-0.56059 0.26028-0.941 0.72077-0.44047 0.5606-0.6607 1.3414-0.20022 0.78083-0.20022 1.6017 0.02 1.2213 0.48052 2.3425 0.48051 1.1012 1.3414 1.6017 0.90096 0.14015 1.5416-0.06006 0.66071-0.22023 1.1012-0.6607 0.58062-0.60064 0.82088-1.5216 0.26027-0.92098 0.22023-1.9421z"/>
   <path d="m123.96 47.425q-0.36038 0.58062-0.42045 1.6618-0.0601 1.0812-0.02 2.3425 0 0.20021 0 0.40043 0.02 0.20021 0.04 0.40043 0.0601 1.3614 0.0601 2.7429 0.02 1.3614-0.20021 2.4226-0.16017 0.74079-0.50054 1.2613-0.32034 0.54058-0.90095 0.72077-0.14015 0.04004-0.5606 0.08009-0.42045 0.06006-0.90096 0.04004-0.48051 0-0.82087-0.08008-0.30032-0.10011-0.54058-0.32034-0.22023-0.20021-0.56059-0.36038-0.14015-0.34036-0.22024-0.78083-0.0801-0.44047 0.04-0.86092 0.40043-0.48051 0.72077-0.46049 0.34036 0.04004 0.60064 0.32034 0.30032 0.32034 0.52055 0.82087 0.22024 0.50053 0.32034 0.86092 0.62066 0.02002 1.1012-0.30032 0.48051-0.30032 0.56059-0.92098 0.14015-0.96102 0.0801-2.4026-0.0401-1.4616-0.12013-2.9431-0.0601-1.0611-0.12013-2.0422-0.04-0.98104 0-1.7218-0.12013-0.04004-0.26028 0-0.12012 0.02002-0.28029 0.08008t-0.36039 0.10011q-0.20021 0.04004-0.46049 0-0.0801-0.18019-0.16017-0.3804-0.0601-0.22024-0.0801-0.48051 0.44047-0.26028 1.0611-0.40043 0.50053-0.10011 1.0211-0.12013 0.52056-0.02002 0.941 0.12013 0.12013 0.02002 0.22024 0.08008 0.12013 0.06006 0.20021 0.12013zm-0.2803-2.2824q-0.26027 0.44047-0.72076 0.48051-0.46049 0.02002-0.8409-0.22024-0.3804-0.26028-0.42045-0.6607-0.04-0.58062 0.32035-0.86092 0.36038-0.2803 0.78083-0.24026 0.44046 0.04004 0.74078 0.42045 0.32034 0.3804 0.14015 1.0812z"/>
   <path d="m131.02 50.448q0.12012 1.1012-0.10011 2.2224-0.20021 1.1012-0.5606 2.0622-0.34036 0.12013-0.58062 0.3804-0.22023 0.26028-0.48051 0.48051-0.24025 0.22023-0.70074 0.26028-0.10011-0.02002-0.12013 0.04004-0.02 0.06006-0.02 0.14015 0 0.18019-0.0801 0.20021-0.82087 0.32034-1.6417 0.32034-0.90096 0-1.6418-0.36038-0.74079-0.36038-1.3014-0.98104-0.64069-0.70074-1.0011-1.6417-0.34036-0.941-0.36038-1.9621 0-0.70074 0.16017-1.3815 0.18019-0.70074 0.54057-1.3214 0.0801-0.14015 0.24026-0.24026 0.18019-0.12013 0.32034-0.30032 0.2803-0.34036 0.5606-0.64068 0.30032-0.32034 0.78083-0.50053 0.1001-0.04004 0.26027-0.08009 0.50054-0.14015 1.1012-0.20021 0.62066-0.06006 1.0011-0.02002 0.5606 0.06006 1.1012 0.30032 0.96102 0.44047 1.6818 1.3214 0.72077 0.88094 0.8409 1.902zm-1.4616 0.96102q-0.02-0.54058-0.20021-1.1612-0.16017-0.64068-0.38041-1.1612-0.22023-0.54058-0.3804-0.72077-0.26028-0.34036-0.72077-0.44047-0.44047-0.12013-0.72077-0.14015-0.74078-0.06006-1.3014 0.20021-0.5606 0.26028-0.941 0.72077-0.44047 0.5606-0.6607 1.3414-0.20022 0.78083-0.20022 1.6017 0.02 1.2213 0.48051 2.3425 0.48052 1.1012 1.3414 1.6017 0.90096 0.14015 1.5416-0.06006 0.6607-0.22023 1.1012-0.6607 0.58062-0.60064 0.82088-1.5216 0.26027-0.92098 0.22023-1.9421z"/>
  </g>
  <text x="68.791664" y="47.625" fill="#000000" font-family="sans-serif" font-size="10.583px" stroke-width=".26458" style="line-height:1.25" xml:space="preserve"><tspan x="68.791664" y="47.625" stroke-width=".26458"/></text>
  <text x="82.020836" y="55.5625" fill="#000000" font-family="sans-serif" font-size="10.583px" stroke-width=".26458" style="line-height:1.25" xml:space="preserve"><tspan x="82.020836" y="55.5625" stroke-width=".26458"/></text>
 </g>
</svg>
